<svg width="238" height="151" viewBox="0 0 238 151" fill="none" overflow="visible" xmlns="http://www.w3.org/2000/svg">
  <g transform="translate(24.65, 130.13) scale(1.3469)">
    <path d="M44.64-82.32L76.68-6.18L85.92-3L85.92 0L55.26 0L55.26-3L65.76-6.06L55.92-29.76L25.08-29.76L15.96-6.06L25.98-3L25.98 0L-0.48 0L-0.48-3L8.88-6.06L39.66-82.32L44.64-82.32M27.48-35.88L53.40-35.88L39.96-68.34L27.48-35.88M120.12-32.76L120.12-37.86Q120.12-42.60 117.78-45.27Q115.44-47.94 109.92-47.94Q107.82-47.94 105.36-47.46Q104.46-47.22 103.56-46.98Q103.44-46.14 103.26-45.36Q102.90-43.62 102.45-42.27Q102-40.92 101.28-40.08Q100.32-38.82 98.85-38.31Q97.38-37.80 95.76-37.80Q93.60-37.80 92.40-38.76Q91.20-39.72 91.20-41.16Q91.20-43.08 93.06-45.21Q94.92-47.34 98.10-49.26Q101.28-51.18 105.27-52.38Q109.26-53.58 113.58-53.58Q119.28-53.58 122.76-51.87Q126.24-50.16 127.83-46.92Q129.42-43.68 129.42-38.94L129.42-11.40Q129.42-9.42 129.99-8.16Q130.56-6.90 131.70-6.27Q132.84-5.64 134.52-5.64Q135.90-5.64 137.46-6.12Q139.02-6.60 140.58-7.38L140.58-4.20Q138.06-1.50 135.21-0.24Q132.36 1.02 129.90 1.02Q126.90 1.02 124.71-0.36Q122.52-1.74 121.38-4.38Q120.36-6.72 120.24-9.90Q119.40-7.02 117.66-4.80Q115.44-1.98 112.26-0.39Q109.08 1.20 105.30 1.20Q98.76 1.20 94.68-2.31Q90.60-5.82 90.60-12.42Q90.60-15.96 92.04-18.87Q93.48-21.78 97.14-24.30Q100.80-26.82 107.46-29.16Q112.62-30.96 120.12-32.76M120.12-16.26L120.12-27.90Q115.56-26.82 112.32-25.74Q107.52-24.12 104.91-22.41Q102.30-20.70 101.31-18.72Q100.32-16.74 100.32-14.34Q100.32-10.26 102.78-8.07Q105.24-5.88 109.08-5.88Q112.14-5.88 114.63-7.32Q117.12-8.76 118.62-11.13Q120.12-13.50 120.12-16.26" fill="black" />
  </g>
</svg>