<svg width="238" height="151" viewBox="0 0 238 151" fill="none" overflow="visible" xmlns="http://www.w3.org/2000/svg">
  <g transform="translate(50.40, 135.00) scale(1.4167)">
    <path d="M1.44 0L15.12-84L33-84L46.68 0L33.48 0L31.08-16.68L31.08-16.44L16.08-16.44L13.68 0L1.44 0M17.64-27.84L29.52-27.84L23.64-69.36L23.40-69.36L17.64-27.84M50.16 0L63.84-84L81.72-84L95.40 0L82.20 0L79.80-16.68L79.80-16.44L64.80-16.44L62.40 0L50.16 0M66.36-27.84L78.24-27.84L72.36-69.36L72.12-69.36" fill="black" />
  </g>
</svg>