<svg width="238" height="151" viewBox="0 0 238 151" fill="none" overflow="visible" xmlns="http://www.w3.org/2000/svg">
  <g transform="translate(31.03, 132.21) scale(1.3239)">
    <path d="M31.99-62.34L21.56-32.81L54.61-32.81L44.30-62.34Q43.36-65.04 41.31-70.96Q39.26-76.87 38.44-79.22L37.73-79.22Q32.81-64.80 31.99-62.34M9.84 0L-0.47 0L32.34-87.77L43.83-87.77L76.64 0L66.33 0L57.42-25.31L18.75-25.31L9.84 0M90.23-16.17Q90.23-11.72 93.98-8.61Q97.73-5.51 104.30-5.51Q112.62-5.51 118.54-10.90Q124.45-16.29 124.45-24.61L124.45-33.40Q119.30-32.11 108.05-30.35Q98.91-28.71 94.57-25.31Q90.23-21.91 90.23-16.17M81.09-15.47Q81.09-33.05 108.28-37.27Q120.47-39.26 124.45-40.55L124.45-44.18Q124.45-50.04 120.23-53.91Q116.02-57.77 108.28-57.77Q102.66-57.77 97.44-55.14Q92.23-52.50 88.59-48.05L82.73-52.97Q87.42-58.36 94.04-61.76Q100.66-65.16 108.05-65.16Q133.36-65.16 133.36-40.43L133.36 0L124.69 0L124.69-10.31Q122.81-5.27 116.95-1.58Q111.09 2.11 103.13 2.11Q92.70 2.11 86.89-2.81Q81.09-7.73 81.09-15.47" fill="black" />
  </g>
</svg>