<svg width="238" height="151" viewBox="0 0 238 151" fill="none" overflow="visible" xmlns="http://www.w3.org/2000/svg">
  <g transform="translate(23.70, 128.26) scale(1.2965)">
    <path d="M58.95-24.14L21.33-24.14L11.84 0L0.23 0L33.93-82.56L46.64-82.56L79.80 0L68.38 0L58.95-24.14M40.14-74.12Q39.14-70.84 37.76-66.83Q36.39-62.81 35.21-59.77L24.73-32.87L55.61-32.87L45-60.12Q44.18-62.17 42.83-65.92Q41.48-69.67 40.14-74.12M104.30 1.17Q94.75 1.17 89.94-3.87Q85.14-8.91 85.14-17.70Q85.14-27.54 91.61-32.81Q98.09-38.09 112.50-38.44L126.74-38.67L126.74-42.13Q126.74-49.86 123.46-53.20Q120.18-56.54 113.14-56.54Q106.05-56.54 102.83-54.14Q99.61-51.74 98.96-46.46L87.95-47.46Q90.64-64.57 113.38-64.57Q125.33-64.57 131.37-59.09Q137.40-53.61 137.40-43.24L137.40-15.94Q137.40-11.25 138.63-8.88Q139.86-6.50 143.32-6.50Q144.96-6.50 146.78-6.91L146.78-0.35Q144.79 0.12 142.73 0.35Q140.68 0.59 138.63 0.59Q132.77 0.59 130.11-2.49Q127.44-5.57 127.09-12.13L126.74-12.13Q122.70-4.86 117.33-1.85Q111.97 1.17 104.30 1.17M126.74-26.07L126.74-31.29L115.20-31.05Q107.81-31 103.95-29.53Q100.08-28.12 98.03-25.20Q95.98-22.27 95.98-17.52Q95.98-12.36 98.76-9.55Q101.54-6.74 106.70-6.74Q112.56-6.74 117.01-9.37Q121.52-12.01 124.13-16.61Q126.74-21.21 126.74-26.07" fill="black" />
  </g>
</svg>