<svg width="238" height="151" viewBox="0 0 238 151" fill="none" overflow="visible" xmlns="http://www.w3.org/2000/svg">
  <g transform="translate(28.39, 133.40) scale(1.3649)">
    <path d="M75.76 0L65.45 0L54.90-27.19L20.57-27.19L10.08 0L0 0L33.52-86.02L42.48-86.02L75.76 0M23.91-36.04L51.91-36.04L41.89-63.05Q41.54-64.10 40.75-66.50Q39.96-68.91 39.14-71.48Q38.32-74.06 37.79-75.64Q37.21-73.24 36.53-70.87Q35.86-68.50 35.21-66.47Q34.57-64.45 34.10-63.05L23.91-36.04M110.16-65.27Q121.64-65.27 127.21-60.12Q132.77-54.96 132.77-43.65L132.77 0L125.68 0L123.81-9.49L123.34-9.49Q120.64-5.98 117.71-3.60Q114.79-1.23 110.95-0.03Q107.11 1.17 101.54 1.17Q95.68 1.17 91.14-0.88Q86.60-2.93 83.99-7.09Q81.39-11.25 81.39-17.64Q81.39-27.25 89-32.40Q96.62-37.56 112.21-38.03L123.28-38.50L123.28-42.42Q123.28-50.74 119.71-54.08Q116.13-57.42 109.63-57.42Q104.59-57.42 100.02-55.96Q95.45-54.49 91.35-52.50L88.36-59.88Q92.70-62.11 98.32-63.69Q103.95-65.27 110.16-65.27M123.16-25.72L123.16-31.64L113.38-31.23Q101.37-30.76 96.45-27.30Q91.52-23.85 91.52-17.52Q91.52-12.01 94.86-9.37Q98.20-6.74 103.71-6.74Q112.27-6.74 117.71-11.48Q123.16-16.23 123.16-25.72" fill="black" />
  </g>
</svg>