<svg width="238" height="151" viewBox="0 0 238 151" fill="none" xmlns="http://www.w3.org/2000/svg">
<path d="M69.2664 0L120.482 131.915C122.581 137.228 124.959 140.794 127.618 142.611C130.277 144.289 132.726 145.198 134.965 145.338V149.532C132.166 149.252 128.738 149.113 124.68 149.113C120.622 148.973 116.563 148.903 112.505 148.903C107.048 148.903 101.941 148.973 97.1829 149.113C92.4252 149.113 88.5771 149.252 85.6385 149.532V145.338C92.775 145.058 97.3228 143.869 99.2819 141.772C101.241 139.535 100.821 134.851 98.0225 127.721L58.9814 23.4889L62.3398 20.7625L25.8175 115.557C23.5786 121.15 22.2492 125.903 21.8294 129.818C21.4096 133.593 21.7595 136.599 22.8789 138.836C24.1383 141.073 26.1673 142.681 28.966 143.66C31.9045 144.638 35.5428 145.198 39.8807 145.338V149.532C35.9626 149.252 31.8346 149.113 27.4967 149.113C23.2987 148.973 19.3806 148.903 15.7424 148.903C12.2441 148.903 9.23552 148.973 6.71674 149.113C4.3379 149.113 2.09898 149.252 0 149.532V145.338C2.79864 144.638 5.66725 143.031 8.60583 140.514C11.5444 137.857 14.2031 133.383 16.582 127.092L65.9081 0C66.4678 0 67.0275 0 67.5872 0C68.147 0 68.7067 0 69.2664 0ZM94.874 89.132V93.3264H32.3243L34.4233 89.132H94.874Z" fill="black"/>
<path d="M169.573 151C163.836 151 158.868 149.951 154.67 147.854C150.472 145.617 147.254 142.541 145.015 138.626C142.916 134.712 141.867 130.168 141.867 124.994C141.867 118.843 143.266 113.809 146.065 109.894C149.003 105.98 152.711 102.834 157.189 100.457C161.667 98.0801 166.355 96.1227 171.252 94.5847C176.29 92.907 181.048 91.369 185.525 89.9708C190.003 88.4329 193.642 86.6852 196.44 84.7278C199.379 82.7704 200.848 80.1838 200.848 76.9681V63.9653C200.848 58.0931 199.938 53.619 198.119 50.5431C196.44 47.4671 194.131 45.4398 191.193 44.4611C188.254 43.3426 184.966 42.7833 181.327 42.7833C177.829 42.7833 174.051 43.2727 169.993 44.2514C166.075 45.2301 162.926 47.2574 160.548 50.3333C163.206 50.8926 165.515 52.2908 167.474 54.5278C169.433 56.7648 170.413 59.631 170.413 63.1264C170.413 66.6218 169.293 69.4181 167.054 71.5153C164.815 73.4727 161.947 74.4514 158.449 74.4514C154.391 74.4514 151.382 73.1931 149.423 70.6764C147.604 68.0199 146.694 65.0838 146.694 61.8681C146.694 58.2329 147.604 55.2968 149.423 53.0597C151.242 50.8227 153.551 48.7255 156.35 46.7681C159.568 44.531 163.696 42.6435 168.734 41.1056C173.911 39.4278 179.718 38.5889 186.155 38.5889C191.892 38.5889 196.79 39.288 200.848 40.6861C204.906 41.9444 208.264 43.832 210.923 46.3486C214.561 49.7042 216.94 53.8287 218.06 58.7222C219.179 63.4759 219.739 69.2083 219.739 75.9195V134.222C219.739 137.718 220.229 140.234 221.208 141.772C222.328 143.31 224.007 144.079 226.246 144.079C227.785 144.079 229.254 143.73 230.654 143.031C232.053 142.331 233.732 141.213 235.691 139.675L238 143.24C235.061 145.477 232.263 147.365 229.604 148.903C226.945 150.301 223.377 151 218.899 151C214.841 151 211.483 150.301 208.824 148.903C206.165 147.505 204.136 145.477 202.737 142.821C201.478 140.025 200.848 136.529 200.848 132.335C197.07 138.626 192.522 143.31 187.205 146.386C182.027 149.462 176.15 151 169.573 151ZM177.13 142.611C181.747 142.611 186.015 141.283 189.933 138.626C193.991 135.97 197.63 131.985 200.848 126.672V85.5667C199.169 87.9435 196.72 89.9708 193.502 91.6486C190.283 93.1866 186.785 94.7945 183.007 96.4722C179.228 98.0102 175.59 99.8977 172.092 102.135C168.734 104.232 165.935 107.028 163.696 110.524C161.457 114.019 160.338 118.563 160.338 124.156C160.338 129.748 161.807 134.222 164.746 137.578C167.824 140.933 171.952 142.611 177.13 142.611Z" fill="black"/>
</svg>