<svg width="238" height="151" viewBox="0 0 238 151" fill="none" overflow="visible" xmlns="http://www.w3.org/2000/svg">
  <g transform="translate(19.89, 131.92) scale(1.3709)">
    <path d="M13.44 0L3 0L28.92-84L46.68-84L72.60 0L62.16 0L55.68-21.24L19.92-21.24L13.44 0M36.96-77.88L22.44-30.36L53.04-30.36L38.64-77.88L36.96-77.88M103.56 1.68Q97.44 1.68 92.40-0.48Q87.36-2.64 84.48-6.72Q81.60-10.80 81.60-16.68Q81.60-22.68 84.48-26.58Q87.36-30.48 92.40-32.46Q97.44-34.44 103.68-34.44L123.48-34.44L123.48-38.76Q123.48-45 119.82-48.60Q116.16-52.20 108.96-52.20Q101.88-52.20 97.92-48.78Q93.96-45.36 92.52-39.60L83.64-42.48Q85.08-47.40 88.20-51.42Q91.32-55.44 96.54-57.90Q101.76-60.36 109.08-60.36Q120.36-60.36 126.60-54.54Q132.84-48.72 132.84-38.16L132.84-11.64Q132.84-8.04 136.20-8.04L141.60-8.04L141.60 0L133.32 0Q129.36 0 126.96-2.22Q124.56-4.44 124.56-8.16L124.56-8.76L123.12-8.76Q121.80-6.48 119.58-4.02Q117.36-1.56 113.52 0.06Q109.68 1.68 103.56 1.68M104.64-6.48Q113.04-6.48 118.26-11.46Q123.48-16.44 123.48-25.44L123.48-26.76L104.04-26.76Q98.40-26.76 94.74-24.30Q91.08-21.84 91.08-16.92Q91.08-12 94.86-9.24Q98.64-6.48 104.64-6.48" fill="black" />
  </g>
</svg>