<svg width="238" height="151" viewBox="0 0 238 151" fill="none" overflow="visible" xmlns="http://www.w3.org/2000/svg">
  <g transform="translate(19.79, 128.10) scale(1.3487)">
    <path d="M45.36-79.20L76.08 0L65.88 0L57.48-21.96L21.60-21.96L13.20 0L3.12 0L33.96-79.20L45.36-79.20M39.48-69.96L25.08-30.96L54-30.96L39.48-69.96M125.40-36.48L125.40-38.76Q125.40-45.48 121.80-49.14Q118.20-52.80 111.60-52.80Q105.36-52.80 101.04-50.10Q96.72-47.40 94.68-41.40L86.88-46.20Q89.28-52.92 95.76-57.06Q102.24-61.20 111.84-61.20Q118.32-61.20 123.60-58.98Q128.88-56.76 131.94-52.26Q135-47.76 135-40.68L135-11.64Q135-7.32 139.56-7.32Q141.84-7.32 144-7.92L143.52-0.36Q141.12 0.84 137.28 0.84Q133.80 0.84 131.04-0.48Q128.28-1.80 126.72-4.56Q125.88-5.88 125.52-7.68Q124.32-5.88 122.64-4.56Q119.16-1.56 114.84-0.18Q110.52 1.20 106.32 1.20Q101.04 1.20 96.48-0.60Q91.92-2.40 89.22-6.06Q86.52-9.72 86.52-15.12Q86.52-21.84 91.02-26.22Q95.52-30.60 103.56-32.16L125.40-36.48M125.40-22.20L125.40-28.56L108-24.96Q102.12-23.76 99.24-21.60Q96.36-19.44 96.36-15.60Q96.36-11.88 99.30-9.54Q102.24-7.20 107.64-7.20Q111.12-7.20 114.30-8.10Q117.48-9 120-10.86Q122.52-12.72 123.96-15.54Q125.40-18.36 125.40-22.20" fill="black" />
  </g>
</svg>